# xmcd
#
# Track frame offsets:
#	150
#	15893
#	27143
#	35015
#	47953
#	64829
#	78364
#	90643
#	106266
#	119560
#	136131
#	150112
#	163923
#	177954
#	190450
#	199711
#	212507
#	222769
#	234582
#	249458
#	264014
#	277998
#	288114
#	298929
#	312314
#	320518
#	332036
#	342574
#
# Disc length: 4771 seconds
# Revision: 0
# Processed by: cddbd v1.5.2PL0 Copyright (c) Steve Scherf et al.
# Submitted via: dBpowerAMP V12.0
#
DISCID=9112a11c
DTITLE=Various Artist - DJ KAORI'S PARTY MIX
DYEAR=2009
DGENRE=R&B
TTITLE0=Alex Gaudino Feat. Crystal Waters - Destination Calabria (UK Extended Mix)
TTITLE1=Bob Sinclar - Sound Of Freedom (Original Club Mix)
TTITLE2=Pitbull - I Know You Want Me (Calle Ocho)
TTITLE3=Rihanna - Disturbia (Jody Den Broeder Remix)
TTITLE4=Ne-Yo - Because Of You (Sunfreakz Remix)
TTITLE5=Utada - Come Back To Me (Tony Moran and Warren Rigg Club Mix)
TTITLE6=Mariah Carey - Touch My Body (Seamus Haji Club Mix)
TTITLE7=Fedde Le Grand - Put Your Hands Up For Detroit (Club Mix)
TTITLE8=Black Eyed Peas - Boom Boom Pow
TTITLE9=Kid Cudi - Day 'N' Nite (Crookers Remix)
TTITLE10=Eric Prydz - Call On Me (Eric Prydz Vs Retarded Funk Mix)
TTITLE11=The Ting Tings - Great DJ
TTITLE12=MGMT - Kids
TTITLE13=Lady Gaga - Poker Face
TTITLE14=Pink - So What
TTITLE15=Steve Angello and Laidback Luke Feat. Robin S - Show Me Love
TTITLE16=Bob Sinclar - Rock This Party (Original Club Mix)
TTITLE17=Kevin Rudolf Feat. Lil Wayne - Let It Rock
TTITLE18=The Pussycat Dolls - I Hate This Part (Moto Blanco Club Mix)
TTITLE19=Kelly Clarkson - Since U Been Gone (Jason Nevins Club Mixshow)
TTITLE20=Keri Hilson - Energy (Wideboys Club Mix)
TTITLE21=LMFAO - I'm In Miami Bitch
TTITLE22=Larry Tee and Princess Superstar - Licky (Work It Out) (Herve Radio Edit)
TTITLE23=Kanye West - Love Lockdown (Remix)
TTITLE24=Treasure Fingers - Cross The Dancefloor
TTITLE25=Daft Punk - Harder Better Faster Stronger
TTITLE26=Avril Lavigne Feat. Lil Mama - Girlfriend (Dr. Luke Remix)
TTITLE27=M.I.A. - Paper Planes
EXTD=
EXTT0=
EXTT1=
EXTT2=
EXTT3=
EXTT4=
EXTT5=
EXTT6=
EXTT7=
EXTT8=
EXTT9=
EXTT10=
EXTT11=
EXTT12=
EXTT13=
EXTT14=
EXTT15=
EXTT16=
EXTT17=
EXTT18=
EXTT19=
EXTT20=
EXTT21=
EXTT22=
EXTT23=
EXTT24=
EXTT25=
EXTT26=
EXTT27=
PLAYORDER=
